<svg viewBox="0 0 900 540" xmlns="http://www.w3.org/2000/svg" font-family="system-ui, -apple-system, 'Segoe UI', sans-serif">
  <!-- Background -->
  <rect width="900" height="540" fill="#0A0F1E"/>

  <!-- Title -->
  <text x="450" y="48" text-anchor="middle" fill="#C9A84C" font-size="20" font-weight="700" letter-spacing="0.04em">HYPNOBIRTHING+ — LINK BUILDING TARGET MATRIX</text>
  <text x="450" y="72" text-anchor="middle" fill="#8892A4" font-size="13">Pregnancy + hypnobirthing niche · Prioritised by authority + acquisition difficulty</text>

  <!-- Header row -->
  <rect x="40" y="90" width="820" height="34" rx="6" fill="#141B2D"/>
  <text x="180" y="112" text-anchor="middle" fill="#4B5563" font-size="11" font-weight="700" letter-spacing="0.08em">TARGET SITE</text>
  <text x="360" y="112" text-anchor="middle" fill="#4B5563" font-size="11" font-weight="700" letter-spacing="0.08em">DA</text>
  <text x="490" y="112" text-anchor="middle" fill="#4B5563" font-size="11" font-weight="700" letter-spacing="0.08em">TYPE</text>
  <text x="640" y="112" text-anchor="middle" fill="#4B5563" font-size="11" font-weight="700" letter-spacing="0.08em">DIFFICULTY</text>
  <text x="790" y="112" text-anchor="middle" fill="#4B5563" font-size="11" font-weight="700" letter-spacing="0.08em">PRIORITY</text>

  <!-- Row 1: Healthline -->
  <rect x="40" y="130" width="820" height="44" rx="0" fill="#0F1628"/>
  <rect x="40" y="130" width="4" height="44" fill="#F59E0B"/>
  <text x="60" y="148" fill="#FFFFFF" font-size="13" font-weight="600">Healthline.com / Parenthood</text>
  <text x="60" y="165" fill="#8892A4" font-size="11">Pregnancy + birth content vertical · Guest post + expert source</text>
  <text x="360" y="156" text-anchor="middle" fill="#C9A84C" font-size="14" font-weight="700">93</text>
  <text x="490" y="156" text-anchor="middle" fill="#FB923C" font-size="12">Health Media</text>
  <text x="640" y="156" text-anchor="middle" fill="#EF4444" font-size="12" font-weight="600">Hard</text>
  <rect x="740" y="140" width="100" height="24" rx="6" fill="#EF444422"/>
  <text x="790" y="156" text-anchor="middle" fill="#EF4444" font-size="11" font-weight="700">LONG TERM</text>

  <!-- Row 2: BabyCenter -->
  <rect x="40" y="174" width="820" height="44" rx="0" fill="#0A0F1E"/>
  <rect x="40" y="174" width="4" height="44" fill="#10B981"/>
  <text x="60" y="192" fill="#FFFFFF" font-size="13" font-weight="600">BabyCenter.com</text>
  <text x="60" y="209" fill="#8892A4" font-size="11">World's #1 pregnancy site · App resource section + community boards</text>
  <text x="360" y="196" text-anchor="middle" fill="#C9A84C" font-size="14" font-weight="700">89</text>
  <text x="490" y="196" text-anchor="middle" fill="#FB923C" font-size="12">Parenting Media</text>
  <text x="640" y="196" text-anchor="middle" fill="#F59E0B" font-size="12" font-weight="600">Medium</text>
  <rect x="740" y="184" width="100" height="24" rx="6" fill="#F59E0B22"/>
  <text x="790" y="200" text-anchor="middle" fill="#F59E0B" font-size="11" font-weight="700">MONTH 2</text>

  <!-- Row 3: The Bump -->
  <rect x="40" y="218" width="820" height="44" rx="0" fill="#0F1628"/>
  <rect x="40" y="218" width="4" height="44" fill="#10B981"/>
  <text x="60" y="236" fill="#FFFFFF" font-size="13" font-weight="600">TheBump.com</text>
  <text x="60" y="253" fill="#8892A4" font-size="11">Top US pregnancy media brand · "Best apps for pregnancy" roundups</text>
  <text x="360" y="240" text-anchor="middle" fill="#C9A84C" font-size="14" font-weight="700">84</text>
  <text x="490" y="240" text-anchor="middle" fill="#FB923C" font-size="12">Parenting Media</text>
  <text x="640" y="240" text-anchor="middle" fill="#F59E0B" font-size="12" font-weight="600">Medium</text>
  <rect x="740" y="228" width="100" height="24" rx="6" fill="#F59E0B22"/>
  <text x="790" y="244" text-anchor="middle" fill="#F59E0B" font-size="11" font-weight="700">MONTH 2</text>

  <!-- Row 4: DONA International -->
  <rect x="40" y="262" width="820" height="44" rx="0" fill="#0A0F1E"/>
  <rect x="40" y="262" width="4" height="44" fill="#10B981"/>
  <text x="60" y="280" fill="#FFFFFF" font-size="13" font-weight="600">DONA International</text>
  <text x="60" y="297" fill="#8892A4" font-size="11">World's largest doula org · Practitioner resource listings + newsletter</text>
  <text x="360" y="284" text-anchor="middle" fill="#C9A84C" font-size="14" font-weight="700">52</text>
  <text x="490" y="284" text-anchor="middle" fill="#A78BFA" font-size="12">Professional Org</text>
  <text x="640" y="284" text-anchor="middle" fill="#10B981" font-size="12" font-weight="600">Low</text>
  <rect x="740" y="272" width="100" height="24" rx="6" fill="#10B98122"/>
  <text x="790" y="288" text-anchor="middle" fill="#10B981" font-size="11" font-weight="700">DO NOW</text>

  <!-- Row 5: Evidence Based Birth -->
  <rect x="40" y="306" width="820" height="44" rx="0" fill="#0F1628"/>
  <rect x="40" y="306" width="4" height="44" fill="#10B981"/>
  <text x="60" y="324" fill="#FFFFFF" font-size="13" font-weight="600">EvidenceBasedBirth.com</text>
  <text x="60" y="341" fill="#8892A4" font-size="11">High-trust birth research site · Practitioner audience + resource pages</text>
  <text x="360" y="328" text-anchor="middle" fill="#C9A84C" font-size="14" font-weight="700">61</text>
  <text x="490" y="328" text-anchor="middle" fill="#A78BFA" font-size="12">Research / Blog</text>
  <text x="640" y="328" text-anchor="middle" fill="#10B981" font-size="12" font-weight="600">Low</text>
  <rect x="740" y="316" width="100" height="24" rx="6" fill="#10B98122"/>
  <text x="790" y="332" text-anchor="middle" fill="#10B981" font-size="11" font-weight="700">DO NOW</text>

  <!-- Row 6: Motherly -->
  <rect x="40" y="350" width="820" height="44" rx="0" fill="#0A0F1E"/>
  <rect x="40" y="350" width="4" height="44" fill="#F59E0B"/>
  <text x="60" y="368" fill="#FFFFFF" font-size="13" font-weight="600">Motherly.com</text>
  <text x="60" y="385" fill="#8892A4" font-size="11">Modern motherhood media · App roundups + wellness content</text>
  <text x="360" y="372" text-anchor="middle" fill="#C9A84C" font-size="14" font-weight="700">68</text>
  <text x="490" y="372" text-anchor="middle" fill="#FB923C" font-size="12">Parenting Media</text>
  <text x="640" y="372" text-anchor="middle" fill="#F59E0B" font-size="12" font-weight="600">Medium</text>
  <rect x="740" y="360" width="100" height="24" rx="6" fill="#F59E0B22"/>
  <text x="790" y="376" text-anchor="middle" fill="#F59E0B" font-size="11" font-weight="700">MONTH 2</text>

  <!-- Row 7: Lamaze -->
  <rect x="40" y="394" width="820" height="44" rx="0" fill="#0F1628"/>
  <rect x="40" y="394" width="4" height="44" fill="#10B981"/>
  <text x="60" y="412" fill="#FFFFFF" font-size="13" font-weight="600">Lamaze.org</text>
  <text x="60" y="429" fill="#8892A4" font-size="11">Lamaze International — childbirth education org · App resources section</text>
  <text x="360" y="416" text-anchor="middle" fill="#C9A84C" font-size="14" font-weight="700">56</text>
  <text x="490" y="416" text-anchor="middle" fill="#A78BFA" font-size="12">Professional Org</text>
  <text x="640" y="416" text-anchor="middle" fill="#10B981" font-size="12" font-weight="600">Low</text>
  <rect x="740" y="404" width="100" height="24" rx="6" fill="#10B98122"/>
  <text x="790" y="420" text-anchor="middle" fill="#10B981" font-size="11" font-weight="700">DO NOW</text>

  <!-- DA note -->
  <text x="450" y="462" text-anchor="middle" fill="#4B5563" font-size="11">DA scores are indicative estimates. Verify with Ahrefs/Moz before prioritising outreach.</text>

  <!-- Footer -->
  <line x1="40" y1="478" x2="860" y2="478" stroke="rgba(255,255,255,0.06)" stroke-width="1"/>
  <text x="450" y="498" text-anchor="middle" fill="#4B5563" font-size="11">Compiled by Scriptor · OpenClaw Research · appstarfamily.com</text>
  <text x="450" y="516" text-anchor="middle" fill="#374151" font-size="10">Priority: Green = Do Now · Amber = Month 2 · Red = Long Term</text>
</svg>
