<svg viewBox="0 0 900 500" xmlns="http://www.w3.org/2000/svg" font-family="system-ui, -apple-system, 'Segoe UI', sans-serif">
  <!-- Background -->
  <rect width="900" height="500" fill="#0A0F1E"/>

  <!-- Title -->
  <text x="450" y="52" text-anchor="middle" fill="#C9A84C" font-size="20" font-weight="700" letter-spacing="0.04em">DO THESE FIRST — ALL APPS, FREE, PERMANENT</text>
  <text x="450" y="78" text-anchor="middle" fill="#8892A4" font-size="13">Submit all 4 apps to each platform · One-time effort · Permanent high-DA backlinks</text>

  <!-- Divider -->
  <line x1="60" y1="96" x2="840" y2="96" stroke="rgba(255,255,255,0.08)" stroke-width="1"/>

  <!-- Card 1: AlternativeTo -->
  <rect x="60" y="116" width="148" height="220" rx="12" fill="#0F1628" stroke="rgba(201,168,76,0.25)" stroke-width="1.5"/>
  <rect x="60" y="116" width="148" height="4" rx="2" fill="#10B981"/>
  <text x="134" y="162" text-anchor="middle" fill="#FFFFFF" font-size="13" font-weight="700">AlternativeTo</text>
  <text x="134" y="185" text-anchor="middle" fill="#C9A84C" font-size="26" font-weight="800">71</text>
  <text x="134" y="203" text-anchor="middle" fill="#8892A4" font-size="10" letter-spacing="0.08em">DOMAIN AUTHORITY</text>
  <line x1="80" y1="216" x2="188" y2="216" stroke="rgba(255,255,255,0.08)" stroke-width="1"/>
  <text x="134" y="237" text-anchor="middle" fill="#10B981" font-size="10" font-weight="700" letter-spacing="0.06em">CRITICAL FOR LYRICAL</text>
  <text x="134" y="255" text-anchor="middle" fill="#8892A4" font-size="10">App discovery</text>
  <text x="134" y="271" text-anchor="middle" fill="#8892A4" font-size="10">+ comparison</text>
  <rect x="80" y="284" width="108" height="26" rx="6" fill="#10B98120"/>
  <text x="134" y="301" text-anchor="middle" fill="#10B981" font-size="10" font-weight="700">All 4 apps ✓</text>

  <!-- Card 2: Product Hunt -->
  <rect x="228" y="116" width="148" height="220" rx="12" fill="#0F1628" stroke="rgba(201,168,76,0.25)" stroke-width="1.5"/>
  <rect x="228" y="116" width="148" height="4" rx="2" fill="#C9A84C"/>
  <text x="302" y="162" text-anchor="middle" fill="#FFFFFF" font-size="13" font-weight="700">Product Hunt</text>
  <text x="302" y="185" text-anchor="middle" fill="#C9A84C" font-size="26" font-weight="800">91</text>
  <text x="302" y="203" text-anchor="middle" fill="#8892A4" font-size="10" letter-spacing="0.08em">DOMAIN AUTHORITY</text>
  <line x1="248" y1="216" x2="356" y2="216" stroke="rgba(255,255,255,0.08)" stroke-width="1"/>
  <text x="302" y="237" text-anchor="middle" fill="#C9A84C" font-size="10" font-weight="700" letter-spacing="0.06em">HIGHEST DA OF FIVE</text>
  <text x="302" y="255" text-anchor="middle" fill="#8892A4" font-size="10">Launch visibility</text>
  <text x="302" y="271" text-anchor="middle" fill="#8892A4" font-size="10">+ press coverage</text>
  <rect x="248" y="284" width="108" height="26" rx="6" fill="#10B98120"/>
  <text x="302" y="301" text-anchor="middle" fill="#10B981" font-size="10" font-weight="700">All 4 apps ✓</text>

  <!-- Card 3: Crunchbase -->
  <rect x="396" y="116" width="148" height="220" rx="12" fill="#0F1628" stroke="rgba(201,168,76,0.25)" stroke-width="1.5"/>
  <rect x="396" y="116" width="148" height="4" rx="2" fill="#C9A84C"/>
  <text x="470" y="162" text-anchor="middle" fill="#FFFFFF" font-size="13" font-weight="700">Crunchbase</text>
  <text x="470" y="185" text-anchor="middle" fill="#C9A84C" font-size="26" font-weight="800">91</text>
  <text x="470" y="203" text-anchor="middle" fill="#8892A4" font-size="10" letter-spacing="0.08em">DOMAIN AUTHORITY</text>
  <line x1="416" y1="216" x2="524" y2="216" stroke="rgba(255,255,255,0.08)" stroke-width="1"/>
  <text x="470" y="237" text-anchor="middle" fill="#C9A84C" font-size="10" font-weight="700" letter-spacing="0.06em">HIGHEST DA OF FIVE</text>
  <text x="470" y="255" text-anchor="middle" fill="#8892A4" font-size="10">Business credibility</text>
  <text x="470" y="271" text-anchor="middle" fill="#8892A4" font-size="10">+ E-E-A-T signal</text>
  <rect x="416" y="284" width="108" height="26" rx="6" fill="#10B98120"/>
  <text x="470" y="301" text-anchor="middle" fill="#10B981" font-size="10" font-weight="700">All 4 apps ✓</text>

  <!-- Card 4: BetaList -->
  <rect x="564" y="116" width="148" height="220" rx="12" fill="#0F1628" stroke="rgba(201,168,76,0.25)" stroke-width="1.5"/>
  <rect x="564" y="116" width="148" height="4" rx="2" fill="#F59E0B"/>
  <text x="638" y="162" text-anchor="middle" fill="#FFFFFF" font-size="13" font-weight="700">BetaList</text>
  <text x="638" y="185" text-anchor="middle" fill="#C9A84C" font-size="26" font-weight="800">74</text>
  <text x="638" y="203" text-anchor="middle" fill="#8892A4" font-size="10" letter-spacing="0.08em">DOMAIN AUTHORITY</text>
  <line x1="584" y1="216" x2="692" y2="216" stroke="rgba(255,255,255,0.08)" stroke-width="1"/>
  <text x="638" y="237" text-anchor="middle" fill="#F59E0B" font-size="10" font-weight="700" letter-spacing="0.06em">EARLY ADOPTERS</text>
  <text x="638" y="255" text-anchor="middle" fill="#8892A4" font-size="10">Early access users</text>
  <text x="638" y="271" text-anchor="middle" fill="#8892A4" font-size="10">+ startup credibility</text>
  <rect x="584" y="284" width="108" height="26" rx="6" fill="#10B98120"/>
  <text x="638" y="301" text-anchor="middle" fill="#10B981" font-size="10" font-weight="700">All 4 apps ✓</text>

  <!-- Card 5: Wellfound -->
  <rect x="732" y="116" width="148" height="220" rx="12" fill="#0F1628" stroke="rgba(201,168,76,0.25)" stroke-width="1.5"/>
  <rect x="732" y="116" width="148" height="4" rx="2" fill="#38BDF8"/>
  <text x="806" y="162" text-anchor="middle" fill="#FFFFFF" font-size="13" font-weight="700">Wellfound</text>
  <text x="806" y="185" text-anchor="middle" fill="#C9A84C" font-size="26" font-weight="800">85</text>
  <text x="806" y="203" text-anchor="middle" fill="#8892A4" font-size="10" letter-spacing="0.08em">DOMAIN AUTHORITY</text>
  <line x1="752" y1="216" x2="860" y2="216" stroke="rgba(255,255,255,0.08)" stroke-width="1"/>
  <text x="806" y="237" text-anchor="middle" fill="#38BDF8" font-size="10" font-weight="700" letter-spacing="0.06em">STARTUP AUTHORITY</text>
  <text x="806" y="255" text-anchor="middle" fill="#8892A4" font-size="10">Founder credibility</text>
  <text x="806" y="271" text-anchor="middle" fill="#8892A4" font-size="10">+ talent signal</text>
  <rect x="752" y="284" width="108" height="26" rx="6" fill="#10B98120"/>
  <text x="806" y="301" text-anchor="middle" fill="#10B981" font-size="10" font-weight="700">All 4 apps ✓</text>

  <!-- Bottom banner -->
  <rect x="60" y="356" width="780" height="68" rx="10" fill="#0F1628" stroke="rgba(201,168,76,0.15)" stroke-width="1"/>
  <text x="450" y="381" text-anchor="middle" fill="#C9A84C" font-size="13" font-weight="700">Combined DA boost across 5 platforms · Est. 30–60 min total setup · Zero ongoing cost</text>
  <text x="450" y="403" text-anchor="middle" fill="#8892A4" font-size="12">These links are permanent. Submit once, benefit forever. Start here before any outreach.</text>

  <!-- DA note -->
  <text x="450" y="444" text-anchor="middle" fill="#4B5563" font-size="11">DA scores are indicative estimates. Verify with Ahrefs/Moz before prioritising outreach.</text>

  <!-- Footer -->
  <line x1="60" y1="460" x2="840" y2="460" stroke="rgba(255,255,255,0.06)" stroke-width="1"/>
  <text x="450" y="480" text-anchor="middle" fill="#4B5563" font-size="11">Compiled by Scriptor · OpenClaw Research · appstarfamily.com</text>
</svg>
