<svg viewBox="0 0 900 620" xmlns="http://www.w3.org/2000/svg" font-family="system-ui, -apple-system, 'Segoe UI', sans-serif">
  <rect width="900" height="620" fill="#0A0F1E"/>

  <text x="450" y="46" text-anchor="middle" fill="#C9A84C" font-size="20" font-weight="700" letter-spacing="0.04em">HYPNOBIRTHING+ — LINK BUILDING TARGET MATRIX</text>
  <text x="450" y="68" text-anchor="middle" fill="#8892A4" font-size="13">Pregnancy + hypnobirthing niche · Professional org listings carry the highest E-E-A-T weight</text>

  <!-- Header row -->
  <rect x="40" y="84" width="820" height="32" rx="6" fill="#141B2D"/>
  <text x="175" y="104" text-anchor="middle" fill="#4B5563" font-size="10" font-weight="700" letter-spacing="0.08em">TARGET SITE</text>
  <text x="355" y="104" text-anchor="middle" fill="#4B5563" font-size="10" font-weight="700" letter-spacing="0.08em">DA</text>
  <text x="480" y="104" text-anchor="middle" fill="#4B5563" font-size="10" font-weight="700" letter-spacing="0.08em">TYPE</text>
  <text x="630" y="104" text-anchor="middle" fill="#4B5563" font-size="10" font-weight="700" letter-spacing="0.08em">DIFFICULTY</text>
  <text x="790" y="104" text-anchor="middle" fill="#4B5563" font-size="10" font-weight="700" letter-spacing="0.08em">PRIORITY</text>

  <!-- Row 1: DONA -->
  <rect x="40" y="116" width="820" height="42" fill="#0F1628"/>
  <rect x="40" y="116" width="4" height="42" fill="#10B981"/>
  <text x="60" y="133" fill="#FFFFFF" font-size="13" font-weight="600">DONA International</text>
  <text x="60" y="149" fill="#8892A4" font-size="10">dona.org · world's largest doula org · partner resource listing</text>
  <text x="355" y="143" text-anchor="middle" fill="#C9A84C" font-size="14" font-weight="800">62</text>
  <text x="480" y="143" text-anchor="middle" fill="#A78BFA" font-size="11">Prof. Org</text>
  <text x="630" y="143" text-anchor="middle" fill="#10B981" font-size="11" font-weight="600">Low</text>
  <rect x="740" y="126" width="100" height="22" rx="5" fill="#10B98122"/>
  <text x="790" y="141" text-anchor="middle" fill="#10B981" font-size="10" font-weight="700">DO NOW</text>

  <!-- Row 2: Evidence Based Birth -->
  <rect x="40" y="158" width="820" height="42" fill="#0A0F1E"/>
  <rect x="40" y="158" width="4" height="42" fill="#10B981"/>
  <text x="60" y="175" fill="#FFFFFF" font-size="13" font-weight="600">Evidence Based Birth</text>
  <text x="60" y="191" fill="#8892A4" font-size="10">evidencebasedbirth.com · practitioner audience · research resource submission</text>
  <text x="355" y="185" text-anchor="middle" fill="#C9A84C" font-size="14" font-weight="800">68</text>
  <text x="480" y="185" text-anchor="middle" fill="#A78BFA" font-size="11">Research</text>
  <text x="630" y="185" text-anchor="middle" fill="#10B981" font-size="11" font-weight="600">Low</text>
  <rect x="740" y="168" width="100" height="22" rx="5" fill="#10B98122"/>
  <text x="790" y="183" text-anchor="middle" fill="#10B981" font-size="10" font-weight="700">DO NOW</text>

  <!-- Row 3: Lamaze -->
  <rect x="40" y="200" width="820" height="42" fill="#0F1628"/>
  <rect x="40" y="200" width="4" height="42" fill="#10B981"/>
  <text x="60" y="217" fill="#FFFFFF" font-size="13" font-weight="600">Lamaze International</text>
  <text x="60" y="233" fill="#8892A4" font-size="10">lamaze.org · childbirth education org · app resources section</text>
  <text x="355" y="227" text-anchor="middle" fill="#C9A84C" font-size="14" font-weight="800">65</text>
  <text x="480" y="227" text-anchor="middle" fill="#A78BFA" font-size="11">Prof. Org</text>
  <text x="630" y="227" text-anchor="middle" fill="#10B981" font-size="11" font-weight="600">Low</text>
  <rect x="740" y="210" width="100" height="22" rx="5" fill="#10B98122"/>
  <text x="790" y="225" text-anchor="middle" fill="#10B981" font-size="10" font-weight="700">DO NOW</text>

  <!-- Row 4: CAPPA -->
  <rect x="40" y="242" width="820" height="42" fill="#0A0F1E"/>
  <rect x="40" y="242" width="4" height="42" fill="#10B981"/>
  <text x="60" y="259" fill="#FFFFFF" font-size="13" font-weight="600">CAPPA</text>
  <text x="60" y="275" fill="#8892A4" font-size="10">cappa.net · Childbirth and Postpartum Professional Association · app listing</text>
  <text x="355" y="269" text-anchor="middle" fill="#C9A84C" font-size="14" font-weight="800">58</text>
  <text x="480" y="269" text-anchor="middle" fill="#A78BFA" font-size="11">Prof. Org</text>
  <text x="630" y="269" text-anchor="middle" fill="#10B981" font-size="11" font-weight="600">Low</text>
  <rect x="740" y="252" width="100" height="22" rx="5" fill="#10B98122"/>
  <text x="790" y="267" text-anchor="middle" fill="#10B981" font-size="10" font-weight="700">DO NOW</text>

  <!-- Row 5: Verywell Family -->
  <rect x="40" y="284" width="820" height="42" fill="#0F1628"/>
  <rect x="40" y="284" width="4" height="42" fill="#F59E0B"/>
  <text x="60" y="301" fill="#FFFFFF" font-size="13" font-weight="600">Verywell Family</text>
  <text x="60" y="317" fill="#8892A4" font-size="10">verywellfamily.com · parenting app roundups · contributor network</text>
  <text x="355" y="311" text-anchor="middle" fill="#C9A84C" font-size="14" font-weight="800">85</text>
  <text x="480" y="311" text-anchor="middle" fill="#FB923C" font-size="11">Parenting Media</text>
  <text x="630" y="311" text-anchor="middle" fill="#F59E0B" font-size="11" font-weight="600">Medium</text>
  <rect x="740" y="294" width="100" height="22" rx="5" fill="#F59E0B22"/>
  <text x="790" y="309" text-anchor="middle" fill="#F59E0B" font-size="10" font-weight="700">MONTH 2</text>

  <!-- Row 6: Parents.com -->
  <rect x="40" y="326" width="820" height="42" fill="#0A0F1E"/>
  <rect x="40" y="326" width="4" height="42" fill="#F59E0B"/>
  <text x="60" y="343" fill="#FFFFFF" font-size="13" font-weight="600">Parents.com</text>
  <text x="60" y="359" fill="#8892A4" font-size="10">parents.com · major parenting brand · product reviews + app roundups</text>
  <text x="355" y="353" text-anchor="middle" fill="#C9A84C" font-size="14" font-weight="800">88</text>
  <text x="480" y="353" text-anchor="middle" fill="#FB923C" font-size="11">Parenting Media</text>
  <text x="630" y="353" text-anchor="middle" fill="#F59E0B" font-size="11" font-weight="600">Medium</text>
  <rect x="740" y="336" width="100" height="22" rx="5" fill="#F59E0B22"/>
  <text x="790" y="351" text-anchor="middle" fill="#F59E0B" font-size="10" font-weight="700">MONTH 2</text>

  <!-- Row 7: BabyCenter -->
  <rect x="40" y="368" width="820" height="42" fill="#0F1628"/>
  <rect x="40" y="368" width="4" height="42" fill="#F59E0B"/>
  <text x="60" y="385" fill="#FFFFFF" font-size="13" font-weight="600">BabyCenter</text>
  <text x="60" y="401" fill="#8892A4" font-size="10">babycenter.com · world's #1 pregnancy site · app resource + community boards</text>
  <text x="355" y="395" text-anchor="middle" fill="#C9A84C" font-size="14" font-weight="800">82</text>
  <text x="480" y="395" text-anchor="middle" fill="#FB923C" font-size="11">Parenting Media</text>
  <text x="630" y="395" text-anchor="middle" fill="#F59E0B" font-size="11" font-weight="600">Medium</text>
  <rect x="740" y="378" width="100" height="22" rx="5" fill="#F59E0B22"/>
  <text x="790" y="393" text-anchor="middle" fill="#F59E0B" font-size="10" font-weight="700">MONTH 2</text>

  <!-- Row 8: The Bump -->
  <rect x="40" y="410" width="820" height="42" fill="#0A0F1E"/>
  <rect x="40" y="410" width="4" height="42" fill="#F59E0B"/>
  <text x="60" y="427" fill="#FFFFFF" font-size="13" font-weight="600">The Bump</text>
  <text x="60" y="443" fill="#8892A4" font-size="10">thebump.com · best pregnancy apps roundups · submit app for consideration</text>
  <text x="355" y="437" text-anchor="middle" fill="#C9A84C" font-size="14" font-weight="800">76</text>
  <text x="480" y="437" text-anchor="middle" fill="#FB923C" font-size="11">Parenting Media</text>
  <text x="630" y="437" text-anchor="middle" fill="#F59E0B" font-size="11" font-weight="600">Medium</text>
  <rect x="740" y="420" width="100" height="22" rx="5" fill="#F59E0B22"/>
  <text x="790" y="435" text-anchor="middle" fill="#F59E0B" font-size="10" font-weight="700">MONTH 2</text>

  <!-- Row 9: Motherly -->
  <rect x="40" y="452" width="820" height="42" fill="#0F1628"/>
  <rect x="40" y="452" width="4" height="42" fill="#EF4444"/>
  <text x="60" y="469" fill="#FFFFFF" font-size="13" font-weight="600">Motherly</text>
  <text x="60" y="485" fill="#8892A4" font-size="10">motherly.com · modern motherhood media · app roundups + wellness content</text>
  <text x="355" y="479" text-anchor="middle" fill="#C9A84C" font-size="14" font-weight="800">72</text>
  <text x="480" y="479" text-anchor="middle" fill="#FB923C" font-size="11">Parenting Media</text>
  <text x="630" y="479" text-anchor="middle" fill="#EF4444" font-size="11" font-weight="600">Hard</text>
  <rect x="740" y="462" width="100" height="22" rx="5" fill="#EF444422"/>
  <text x="790" y="477" text-anchor="middle" fill="#EF4444" font-size="10" font-weight="700">LONG TERM</text>

  <text x="450" y="516" text-anchor="middle" fill="#4B5563" font-size="11">DA scores are indicative estimates. Verify with Ahrefs/Moz before prioritising outreach.</text>
  <line x1="40" y1="530" x2="860" y2="530" stroke="rgba(255,255,255,0.06)" stroke-width="1"/>
  <text x="450" y="548" text-anchor="middle" fill="#4B5563" font-size="11">Compiled by Scriptor · OpenClaw Research · appstarfamily.com</text>
  <text x="450" y="564" text-anchor="middle" fill="#374151" font-size="10">Also target: Hypnobirthing Institute (DA 55), BirthWorks (DA 48), What to Expect (DA 78), Healthline (DA 91)</text>
</svg>
