<svg xmlns="http://www.w3.org/2000/svg" viewBox="0 0 960 614" width="960" height="614">
  <rect width="960" height="614" fill="#0A0F1E"/>

  <!-- Title -->
  <text x="24" y="37" font-family="'Inter', system-ui, sans-serif" font-size="16" font-weight="700" fill="#C9A84C" letter-spacing="0.02em">Who Currently Owns the Thailand Expat SERPs</text>
  <text x="24" y="56" font-family="'Inter', system-ui, sans-serif" font-size="11" fill="#6B7280">Top 10 keywords by volume · Live SERP analysis March 2026 · Scriptor / OpenClaw Research</text>

  <!-- Legend -->
  <circle cx="29" cy="72" r="5" fill="#7EC8E3"/>
  <text x="38" y="77" font-family="'Inter', system-ui, sans-serif" font-size="11" fill="#9CA3AF">Official / gov (authoritative but dry)</text>
  <circle cx="230" cy="72" r="5" fill="#FB923C"/>
  <text x="239" y="77" font-family="'Inter', system-ui, sans-serif" font-size="11" fill="#9CA3AF">Commercial / legal bias</text>
  <circle cx="388" cy="72" r="5" fill="#A78BFA"/>
  <text x="397" y="77" font-family="'Inter', system-ui, sans-serif" font-size="11" fill="#9CA3AF">Independent / data</text>
  <circle cx="514" cy="72" r="5" fill="#6B7280"/>
  <text x="523" y="77" font-family="'Inter', system-ui, sans-serif" font-size="11" fill="#9CA3AF">Other / niche</text>
  <rect x="710" y="66" width="12" height="12" rx="2" fill="#C9A84C22" stroke="#C9A84C66" stroke-width="1"/>
  <text x="726" y="77" font-family="'Inter', system-ui, sans-serif" font-size="11" fill="#C9A84C">Gap = opportunity</text>

  <!-- Header row background -->
  <rect x="24" y="88" width="912" height="30" rx="4" fill="#111827"/>

  <!-- Column headers -->
  <text x="30" y="107" font-family="'Inter', system-ui, sans-serif" font-size="11" font-weight="700" fill="#6B7280" letter-spacing="0.06em">KEYWORD</text>
  <text x="222" y="107" font-family="'Inter', system-ui, sans-serif" font-size="11" font-weight="700" fill="#6B7280" letter-spacing="0.06em">POSITION 1</text>
  <text x="408" y="107" font-family="'Inter', system-ui, sans-serif" font-size="11" font-weight="700" fill="#6B7280" letter-spacing="0.06em">POSITION 2</text>
  <text x="578" y="107" font-family="'Inter', system-ui, sans-serif" font-size="11" font-weight="700" fill="#6B7280" letter-spacing="0.06em">POSITION 3</text>
  <text x="754" y="107" font-family="'Inter', system-ui, sans-serif" font-size="11" font-weight="700" fill="#C9A84C" letter-spacing="0.06em">THE GAP</text>

  <!-- Vertical column dividers -->
  <line x1="212" y1="88" x2="212" y2="582" stroke="#1F2937" stroke-width="1"/>
  <line x1="396" y1="88" x2="396" y2="582" stroke="#1F2937" stroke-width="1"/>
  <line x1="566" y1="88" x2="566" y2="582" stroke="#1F2937" stroke-width="1"/>
  <line x1="740" y1="88" x2="740" y2="582" stroke="#1F2937" stroke-width="1"/>

  <!-- ROW 0: DTV visa Thailand 2026 -->
  <rect x="24" y="118" width="912" height="44" fill="#0D1117"/>
  <line x1="24" y1="118" x2="936" y2="118" stroke="#1F2937" stroke-width="1"/>
  <text x="30" y="138" font-family="'Inter', system-ui, sans-serif" font-size="11" font-weight="600" fill="#E5E7EB">DTV visa Thailand 2026</text>
  <text x="30" y="152" font-family="'Inter', system-ui, sans-serif" font-size="10" fill="#6B7280">12,400/mo · $1.85</text>
  <circle cx="220" cy="142" r="4" fill="#7EC8E3"/>
  <text x="228" y="146" font-family="'Inter', system-ui, sans-serif" font-size="11" fill="#D1D5DB">ThaiEmbassy.com</text>
  <circle cx="404" cy="142" r="4" fill="#FB923C"/>
  <text x="412" y="146" font-family="'Inter', system-ui, sans-serif" font-size="11" fill="#D1D5DB">Siam Legal</text>
  <circle cx="574" cy="142" r="4" fill="#7EC8E3"/>
  <text x="582" y="146" font-family="'Inter', system-ui, sans-serif" font-size="11" fill="#D1D5DB">MFA PDF</text>
  <rect x="744" y="122" width="188" height="36" rx="4" fill="#C9A84C0D"/>
  <text x="750" y="140" font-family="'Inter', system-ui, sans-serif" font-size="10" fill="#C9A84C" font-weight="600">No single auth. guide</text>
  <text x="750" y="153" font-family="'Inter', system-ui, sans-serif" font-size="10" fill="#C9A84C88">Fragmented results</text>

  <!-- ROW 1: Thailand digital nomad visa -->
  <rect x="24" y="162" width="912" height="44" fill="#080D14"/>
  <line x1="24" y1="162" x2="936" y2="162" stroke="#1F2937" stroke-width="1"/>
  <text x="30" y="182" font-family="'Inter', system-ui, sans-serif" font-size="11" font-weight="600" fill="#E5E7EB">Thailand digital nomad visa</text>
  <text x="30" y="196" font-family="'Inter', system-ui, sans-serif" font-size="10" fill="#6B7280">9,800/mo · $1.92</text>
  <circle cx="220" cy="186" r="4" fill="#7EC8E3"/>
  <text x="228" y="190" font-family="'Inter', system-ui, sans-serif" font-size="11" fill="#D1D5DB">ThaiEmbassy.com</text>
  <circle cx="404" cy="186" r="4" fill="#FB923C"/>
  <text x="412" y="190" font-family="'Inter', system-ui, sans-serif" font-size="11" fill="#D1D5DB">Greenback Tax</text>
  <circle cx="574" cy="186" r="4" fill="#FB923C"/>
  <text x="582" y="190" font-family="'Inter', system-ui, sans-serif" font-size="11" fill="#D1D5DB">Fragomen</text>
  <rect x="744" y="166" width="188" height="36" rx="4" fill="#C9A84C0D"/>
  <text x="750" y="184" font-family="'Inter', system-ui, sans-serif" font-size="10" fill="#C9A84C" font-weight="600">Lifestyle gap</text>
  <text x="750" y="197" font-family="'Inter', system-ui, sans-serif" font-size="10" fill="#C9A84C88">Legal/tax focus only</text>

  <!-- ROW 2: Thailand retirement visa -->
  <rect x="24" y="206" width="912" height="44" fill="#0D1117"/>
  <line x1="24" y1="206" x2="936" y2="206" stroke="#1F2937" stroke-width="1"/>
  <text x="30" y="226" font-family="'Inter', system-ui, sans-serif" font-size="11" font-weight="600" fill="#E5E7EB">Thailand retirement visa</text>
  <text x="30" y="240" font-family="'Inter', system-ui, sans-serif" font-size="10" fill="#6B7280">8,600/mo · $2.15</text>
  <circle cx="220" cy="230" r="4" fill="#7EC8E3"/>
  <text x="228" y="234" font-family="'Inter', system-ui, sans-serif" font-size="11" fill="#D1D5DB">ThaiEmbassy.com</text>
  <circle cx="404" cy="230" r="4" fill="#FB923C"/>
  <text x="412" y="234" font-family="'Inter', system-ui, sans-serif" font-size="11" fill="#D1D5DB">Siam Legal</text>
  <circle cx="574" cy="230" r="4" fill="#A78BFA"/>
  <text x="582" y="234" font-family="'Inter', system-ui, sans-serif" font-size="11" fill="#D1D5DB">ExpatThai.com</text>
  <rect x="744" y="210" width="188" height="36" rx="4" fill="#C9A84C0D"/>
  <text x="750" y="228" font-family="'Inter', system-ui, sans-serif" font-size="10" fill="#C9A84C" font-weight="600">Clarity gap</text>
  <text x="750" y="241" font-family="'Inter', system-ui, sans-serif" font-size="10" fill="#C9A84C88">Dense legal content</text>

  <!-- ROW 3: Thailand LTR visa -->
  <rect x="24" y="250" width="912" height="44" fill="#080D14"/>
  <line x1="24" y1="250" x2="936" y2="250" stroke="#1F2937" stroke-width="1"/>
  <text x="30" y="270" font-family="'Inter', system-ui, sans-serif" font-size="11" font-weight="600" fill="#E5E7EB">Thailand LTR visa</text>
  <text x="30" y="284" font-family="'Inter', system-ui, sans-serif" font-size="10" fill="#6B7280">7,200/mo · $1.65</text>
  <circle cx="220" cy="274" r="4" fill="#7EC8E3"/>
  <text x="228" y="278" font-family="'Inter', system-ui, sans-serif" font-size="11" fill="#D1D5DB">ltr.boi.go.th</text>
  <circle cx="404" cy="274" r="4" fill="#FB923C"/>
  <text x="412" y="278" font-family="'Inter', system-ui, sans-serif" font-size="11" fill="#D1D5DB">Siam Legal</text>
  <circle cx="574" cy="274" r="4" fill="#6B7280"/>
  <text x="582" y="278" font-family="'Inter', system-ui, sans-serif" font-size="11" fill="#D1D5DB">HLB Thailand</text>
  <rect x="744" y="254" width="188" height="36" rx="4" fill="#C9A84C0D"/>
  <text x="750" y="272" font-family="'Inter', system-ui, sans-serif" font-size="10" fill="#C9A84C" font-weight="600">Guide needed urgently</text>
  <text x="750" y="285" font-family="'Inter', system-ui, sans-serif" font-size="10" fill="#C9A84C88">Official site confusing</text>

  <!-- ROW 4: Cost of living Thailand 2026 -->
  <rect x="24" y="294" width="912" height="44" fill="#0D1117"/>
  <line x1="24" y1="294" x2="936" y2="294" stroke="#1F2937" stroke-width="1"/>
  <text x="30" y="314" font-family="'Inter', system-ui, sans-serif" font-size="11" font-weight="600" fill="#E5E7EB">Cost of living Thailand 2026</text>
  <text x="30" y="328" font-family="'Inter', system-ui, sans-serif" font-size="10" fill="#6B7280">7,800/mo · $1.25</text>
  <circle cx="220" cy="318" r="4" fill="#A78BFA"/>
  <text x="228" y="322" font-family="'Inter', system-ui, sans-serif" font-size="11" fill="#D1D5DB">Numbeo</text>
  <circle cx="404" cy="318" r="4" fill="#A78BFA"/>
  <text x="412" y="322" font-family="'Inter', system-ui, sans-serif" font-size="11" fill="#D1D5DB">Nomads.com</text>
  <circle cx="574" cy="318" r="4" fill="#6B7280"/>
  <text x="582" y="322" font-family="'Inter', system-ui, sans-serif" font-size="11" fill="#D1D5DB">Thailand Insider</text>
  <rect x="744" y="298" width="188" height="36" rx="4" fill="#C9A84C0D"/>
  <text x="750" y="316" font-family="'Inter', system-ui, sans-serif" font-size="10" fill="#C9A84C" font-weight="600">Interactive tool opp.</text>
  <text x="750" y="329" font-family="'Inter', system-ui, sans-serif" font-size="10" fill="#C9A84C88">Static data only</text>

  <!-- ROW 5: Buy property Thailand foreigner -->
  <rect x="24" y="338" width="912" height="44" fill="#080D14"/>
  <line x1="24" y1="338" x2="936" y2="338" stroke="#1F2937" stroke-width="1"/>
  <text x="30" y="358" font-family="'Inter', system-ui, sans-serif" font-size="11" font-weight="600" fill="#E5E7EB">Buy property Thailand foreigner</text>
  <text x="30" y="372" font-family="'Inter', system-ui, sans-serif" font-size="10" fill="#6B7280">5,200/mo · $2.25</text>
  <circle cx="220" cy="362" r="4" fill="#7EC8E3"/>
  <text x="228" y="366" font-family="'Inter', system-ui, sans-serif" font-size="11" fill="#D1D5DB">ThaiEmbassy.com</text>
  <circle cx="404" cy="362" r="4" fill="#A78BFA"/>
  <text x="412" y="366" font-family="'Inter', system-ui, sans-serif" font-size="11" fill="#D1D5DB">Wise</text>
  <circle cx="574" cy="362" r="4" fill="#FB923C"/>
  <text x="582" y="366" font-family="'Inter', system-ui, sans-serif" font-size="11" fill="#D1D5DB">Siam Legal</text>
  <rect x="744" y="342" width="188" height="36" rx="4" fill="#C9A84C0D"/>
  <text x="750" y="360" font-family="'Inter', system-ui, sans-serif" font-size="10" fill="#C9A84C" font-weight="600">Practical guide missing</text>
  <text x="750" y="373" font-family="'Inter', system-ui, sans-serif" font-size="10" fill="#C9A84C88">Legal focus dominates</text>

  <!-- ROW 6: Thailand health insurance -->
  <rect x="24" y="382" width="912" height="44" fill="#0D1117"/>
  <line x1="24" y1="382" x2="936" y2="382" stroke="#1F2937" stroke-width="1"/>
  <text x="30" y="402" font-family="'Inter', system-ui, sans-serif" font-size="11" font-weight="600" fill="#E5E7EB">Thailand health insurance</text>
  <text x="30" y="416" font-family="'Inter', system-ui, sans-serif" font-size="10" fill="#6B7280">4,600/mo · $2.45</text>
  <circle cx="220" cy="406" r="4" fill="#FB923C"/>
  <text x="228" y="410" font-family="'Inter', system-ui, sans-serif" font-size="11" fill="#D1D5DB">Intl. Insurance</text>
  <circle cx="404" cy="406" r="4" fill="#FB923C"/>
  <text x="412" y="410" font-family="'Inter', system-ui, sans-serif" font-size="11" fill="#D1D5DB">AXA</text>
  <circle cx="574" cy="406" r="4" fill="#7EC8E3"/>
  <text x="582" y="410" font-family="'Inter', system-ui, sans-serif" font-size="11" fill="#D1D5DB">ThaiEmbassy.com</text>
  <rect x="744" y="386" width="188" height="36" rx="4" fill="#C9A84C0D"/>
  <text x="750" y="404" font-family="'Inter', system-ui, sans-serif" font-size="10" fill="#C9A84C" font-weight="600">Neutral comparison gap</text>
  <text x="750" y="417" font-family="'Inter', system-ui, sans-serif" font-size="10" fill="#C9A84C88">Commercial bias everywhere</text>

  <!-- ROW 7: Digital nomad Thailand 2026 -->
  <rect x="24" y="426" width="912" height="44" fill="#080D14"/>
  <line x1="24" y1="426" x2="936" y2="426" stroke="#1F2937" stroke-width="1"/>
  <text x="30" y="446" font-family="'Inter', system-ui, sans-serif" font-size="11" font-weight="600" fill="#E5E7EB">Digital nomad Thailand 2026</text>
  <text x="30" y="460" font-family="'Inter', system-ui, sans-serif" font-size="10" fill="#6B7280">6,800/mo · $1.65</text>
  <circle cx="220" cy="450" r="4" fill="#6B7280"/>
  <text x="228" y="454" font-family="'Inter', system-ui, sans-serif" font-size="11" fill="#D1D5DB">Global Work &amp; Travel</text>
  <circle cx="404" cy="450" r="4" fill="#FB923C"/>
  <text x="412" y="454" font-family="'Inter', system-ui, sans-serif" font-size="11" fill="#D1D5DB">Greenback Tax</text>
  <circle cx="574" cy="450" r="4" fill="#6B7280"/>
  <text x="582" y="454" font-family="'Inter', system-ui, sans-serif" font-size="11" fill="#D1D5DB">Aster Lion</text>
  <rect x="744" y="430" width="188" height="36" rx="4" fill="#C9A84C0D"/>
  <text x="750" y="448" font-family="'Inter', system-ui, sans-serif" font-size="10" fill="#C9A84C" font-weight="600">No hub resource</text>
  <text x="750" y="461" font-family="'Inter', system-ui, sans-serif" font-size="10" fill="#C9A84C88">Scattered, thin results</text>

  <!-- ROW 8: Thailand visa free 30 days -->
  <rect x="24" y="470" width="912" height="44" fill="#0D1117"/>
  <line x1="24" y1="470" x2="936" y2="470" stroke="#1F2937" stroke-width="1"/>
  <text x="30" y="490" font-family="'Inter', system-ui, sans-serif" font-size="11" font-weight="600" fill="#E5E7EB">Thailand visa free 30 days</text>
  <text x="30" y="504" font-family="'Inter', system-ui, sans-serif" font-size="10" fill="#6B7280">4,800/mo · $1.52</text>
  <circle cx="220" cy="494" r="4" fill="#A78BFA"/>
  <text x="228" y="498" font-family="'Inter', system-ui, sans-serif" font-size="11" fill="#D1D5DB">ExpatThai.com</text>
  <circle cx="404" cy="494" r="4" fill="#6B7280"/>
  <text x="412" y="498" font-family="'Inter', system-ui, sans-serif" font-size="11" fill="#D1D5DB">Scandasia</text>
  <circle cx="574" cy="494" r="4" fill="#6B7280"/>
  <text x="582" y="498" font-family="'Inter', system-ui, sans-serif" font-size="11" fill="#D1D5DB">BusinessToday</text>
  <rect x="744" y="474" width="188" height="36" rx="4" fill="#C9A84C0D"/>
  <text x="750" y="492" font-family="'Inter', system-ui, sans-serif" font-size="10" fill="#C9A84C" font-weight="600">Accuracy issues</text>
  <text x="750" y="505" font-family="'Inter', system-ui, sans-serif" font-size="10" fill="#C9A84C88">Reliable guide wins</text>

  <!-- ROW 9: Thailand taxes for expats -->
  <rect x="24" y="514" width="912" height="44" fill="#080D14"/>
  <line x1="24" y1="514" x2="936" y2="514" stroke="#1F2937" stroke-width="1"/>
  <text x="30" y="534" font-family="'Inter', system-ui, sans-serif" font-size="11" font-weight="600" fill="#E5E7EB">Thailand taxes for expats</text>
  <text x="30" y="548" font-family="'Inter', system-ui, sans-serif" font-size="10" fill="#6B7280">3,200/mo · $1.75</text>
  <circle cx="220" cy="538" r="4" fill="#FB923C"/>
  <text x="228" y="542" font-family="'Inter', system-ui, sans-serif" font-size="11" fill="#D1D5DB">Titan Wealth</text>
  <circle cx="404" cy="538" r="4" fill="#FB923C"/>
  <text x="412" y="542" font-family="'Inter', system-ui, sans-serif" font-size="11" fill="#D1D5DB">HSBC Expat</text>
  <circle cx="574" cy="538" r="4" fill="#FB923C"/>
  <text x="582" y="542" font-family="'Inter', system-ui, sans-serif" font-size="11" fill="#D1D5DB">Siam Legal</text>
  <rect x="744" y="518" width="188" height="36" rx="4" fill="#C9A84C0D"/>
  <text x="750" y="536" font-family="'Inter', system-ui, sans-serif" font-size="10" fill="#C9A84C" font-weight="600">Simplification opp.</text>
  <text x="750" y="549" font-family="'Inter', system-ui, sans-serif" font-size="10" fill="#C9A84C88">Commercial bias top 3</text>

  <!-- Bottom border -->
  <line x1="24" y1="558" x2="936" y2="558" stroke="#1F2937" stroke-width="1"/>

  <!-- Footer -->
  <text x="24" y="582" font-family="'Inter', system-ui, sans-serif" font-size="11" fill="#374151">Source: live SERP analysis · March 2026 · Brave Search API · Scriptor / OpenClaw Research</text>
  <text x="936" y="582" font-family="'Inter', system-ui, sans-serif" font-size="11" fill="#374151" text-anchor="end">appstarfamily.com</text>
</svg>
